<mxfile host="app.diagrams.net" modified="2023-10-27T15:04:22.857Z" agent="Mozilla/5.0 (Windows NT 10.0; Win64; x64) AppleWebKit/537.36 (KHTML, like Gecko) Chrome/119.0.0.0 Safari/537.36 Edg/119.0.0.0" etag="-oEtF4mUHSVzsEnJnI0e" version="22.0.8" type="device" pages="3">
  <diagram name="第 1 页" id="qTYOauEbnOGFWE4zWXqB">
    <mxGraphModel dx="1002" dy="561" grid="1" gridSize="10" guides="1" tooltips="1" connect="1" arrows="1" fold="1" page="1" pageScale="1" pageWidth="827" pageHeight="1169" math="0" shadow="0">
      <root>
        <mxCell id="0" />
        <mxCell id="1" parent="0" />
        <mxCell id="UtmvscHst4TpLWe68OMd-1" value="捐助者信息" style="shape=partialRectangle;whiteSpace=wrap;html=1;left=0;right=0;fillColor=none;fontSize=12;" vertex="1" parent="1">
          <mxGeometry x="444" y="280" width="70" height="30" as="geometry" />
        </mxCell>
        <mxCell id="UtmvscHst4TpLWe68OMd-3" value="D1" style="whiteSpace=wrap;html=1;aspect=fixed;fontSize=12;" vertex="1" parent="1">
          <mxGeometry x="414" y="280" width="30" height="30" as="geometry" />
        </mxCell>
        <mxCell id="UtmvscHst4TpLWe68OMd-5" value="&lt;font style=&quot;font-size: 12px;&quot;&gt;捐助者&lt;/font&gt;" style="rounded=0;whiteSpace=wrap;html=1;fontSize=12;" vertex="1" parent="1">
          <mxGeometry x="220" y="80" width="80" height="40" as="geometry" />
        </mxCell>
        <mxCell id="UtmvscHst4TpLWe68OMd-6" value="基金管理" style="ellipse;whiteSpace=wrap;html=1;aspect=fixed;fontSize=12;" vertex="1" parent="1">
          <mxGeometry x="404" y="140" width="70" height="70" as="geometry" />
        </mxCell>
        <mxCell id="UtmvscHst4TpLWe68OMd-7" value="教育单位" style="rounded=0;whiteSpace=wrap;html=1;fontSize=12;" vertex="1" parent="1">
          <mxGeometry x="200" y="250" width="80" height="40" as="geometry" />
        </mxCell>
        <mxCell id="UtmvscHst4TpLWe68OMd-8" value="理事会" style="rounded=0;whiteSpace=wrap;html=1;fontSize=12;" vertex="1" parent="1">
          <mxGeometry x="549.19" y="69.25999999999999" width="70" height="40" as="geometry" />
        </mxCell>
        <mxCell id="UtmvscHst4TpLWe68OMd-9" value="" style="endArrow=classic;html=1;rounded=0;fontSize=12;exitX=1;exitY=0.75;exitDx=0;exitDy=0;" edge="1" parent="1" source="UtmvscHst4TpLWe68OMd-7" target="UtmvscHst4TpLWe68OMd-6">
          <mxGeometry width="50" height="50" relative="1" as="geometry">
            <mxPoint x="280" y="300" as="sourcePoint" />
            <mxPoint x="330" y="250" as="targetPoint" />
          </mxGeometry>
        </mxCell>
        <mxCell id="UtmvscHst4TpLWe68OMd-19" value="F4 用款申请" style="edgeLabel;html=1;align=center;verticalAlign=middle;resizable=0;points=[];" vertex="1" connectable="0" parent="UtmvscHst4TpLWe68OMd-9">
          <mxGeometry x="0.0473" relative="1" as="geometry">
            <mxPoint x="13" y="2" as="offset" />
          </mxGeometry>
        </mxCell>
        <mxCell id="UtmvscHst4TpLWe68OMd-10" value="" style="endArrow=classic;html=1;rounded=0;exitX=1.002;exitY=0.361;exitDx=0;exitDy=0;entryX=0.351;entryY=0.048;entryDx=0;entryDy=0;entryPerimeter=0;fontSize=12;exitPerimeter=0;" edge="1" parent="1" source="UtmvscHst4TpLWe68OMd-5" target="UtmvscHst4TpLWe68OMd-6">
          <mxGeometry width="50" height="50" relative="1" as="geometry">
            <mxPoint x="290" y="120" as="sourcePoint" />
            <mxPoint x="340" y="70" as="targetPoint" />
          </mxGeometry>
        </mxCell>
        <mxCell id="UtmvscHst4TpLWe68OMd-16" value="F1 捐助请求" style="edgeLabel;html=1;align=center;verticalAlign=middle;resizable=0;points=[];fontSize=11;" vertex="1" connectable="0" parent="UtmvscHst4TpLWe68OMd-10">
          <mxGeometry x="-0.0803" y="1" relative="1" as="geometry">
            <mxPoint x="9" as="offset" />
          </mxGeometry>
        </mxCell>
        <mxCell id="UtmvscHst4TpLWe68OMd-11" value="" style="endArrow=classic;html=1;rounded=0;exitX=0;exitY=0;exitDx=0;exitDy=0;entryX=1;entryY=0.75;entryDx=0;entryDy=0;fontSize=12;" edge="1" parent="1" source="UtmvscHst4TpLWe68OMd-6" target="UtmvscHst4TpLWe68OMd-5">
          <mxGeometry width="50" height="50" relative="1" as="geometry">
            <mxPoint x="280" y="300" as="sourcePoint" />
            <mxPoint x="330" y="250" as="targetPoint" />
          </mxGeometry>
        </mxCell>
        <mxCell id="UtmvscHst4TpLWe68OMd-17" value="F2 捐助证书" style="edgeLabel;html=1;align=center;verticalAlign=middle;resizable=0;points=[];fontSize=11;" vertex="1" connectable="0" parent="UtmvscHst4TpLWe68OMd-11">
          <mxGeometry x="0.04" y="4" relative="1" as="geometry">
            <mxPoint as="offset" />
          </mxGeometry>
        </mxCell>
        <mxCell id="UtmvscHst4TpLWe68OMd-12" value="" style="endArrow=classic;html=1;rounded=0;exitX=-0.007;exitY=0.6;exitDx=0;exitDy=0;exitPerimeter=0;entryX=1;entryY=0.25;entryDx=0;entryDy=0;fontSize=12;" edge="1" parent="1" source="UtmvscHst4TpLWe68OMd-6" target="UtmvscHst4TpLWe68OMd-7">
          <mxGeometry width="50" height="50" relative="1" as="geometry">
            <mxPoint x="280" y="300" as="sourcePoint" />
            <mxPoint x="330" y="250" as="targetPoint" />
          </mxGeometry>
        </mxCell>
        <mxCell id="UtmvscHst4TpLWe68OMd-18" value="F3 资金支出" style="edgeLabel;html=1;align=center;verticalAlign=middle;resizable=0;points=[];" vertex="1" connectable="0" parent="UtmvscHst4TpLWe68OMd-12">
          <mxGeometry x="0.1134" y="-2" relative="1" as="geometry">
            <mxPoint x="-12" y="-5" as="offset" />
          </mxGeometry>
        </mxCell>
        <mxCell id="UtmvscHst4TpLWe68OMd-14" value="" style="endArrow=classic;html=1;rounded=0;exitX=0.802;exitY=0.041;exitDx=0;exitDy=0;entryX=0;entryY=0.75;entryDx=0;entryDy=0;fontSize=12;exitPerimeter=0;" edge="1" parent="1" source="UtmvscHst4TpLWe68OMd-6" target="UtmvscHst4TpLWe68OMd-8">
          <mxGeometry width="50" height="50" relative="1" as="geometry">
            <mxPoint x="630" y="200" as="sourcePoint" />
            <mxPoint x="680" y="150" as="targetPoint" />
          </mxGeometry>
        </mxCell>
        <mxCell id="UtmvscHst4TpLWe68OMd-20" value="F5 财政报表" style="edgeLabel;html=1;align=center;verticalAlign=middle;resizable=0;points=[];" vertex="1" connectable="0" parent="UtmvscHst4TpLWe68OMd-14">
          <mxGeometry x="-0.2915" y="2" relative="1" as="geometry">
            <mxPoint as="offset" />
          </mxGeometry>
        </mxCell>
        <mxCell id="UtmvscHst4TpLWe68OMd-21" value="教育单位信息" style="shape=partialRectangle;whiteSpace=wrap;html=1;left=0;right=0;fillColor=none;fontSize=12;" vertex="1" parent="1">
          <mxGeometry x="544" y="220" width="86" height="30" as="geometry" />
        </mxCell>
        <mxCell id="UtmvscHst4TpLWe68OMd-22" value="D2" style="whiteSpace=wrap;html=1;aspect=fixed;fontSize=12;" vertex="1" parent="1">
          <mxGeometry x="514" y="220" width="30" height="30" as="geometry" />
        </mxCell>
        <mxCell id="UtmvscHst4TpLWe68OMd-25" value="收支状况信息" style="shape=partialRectangle;whiteSpace=wrap;html=1;left=0;right=0;fillColor=none;fontSize=12;" vertex="1" parent="1">
          <mxGeometry x="580" y="170" width="90" height="30" as="geometry" />
        </mxCell>
        <mxCell id="UtmvscHst4TpLWe68OMd-26" value="D3" style="whiteSpace=wrap;html=1;aspect=fixed;fontSize=12;" vertex="1" parent="1">
          <mxGeometry x="550" y="170" width="30" height="30" as="geometry" />
        </mxCell>
        <mxCell id="UtmvscHst4TpLWe68OMd-27" value="" style="endArrow=classic;startArrow=classic;html=1;rounded=0;exitX=0.074;exitY=0.092;exitDx=0;exitDy=0;exitPerimeter=0;entryX=0.573;entryY=1.014;entryDx=0;entryDy=0;entryPerimeter=0;" edge="1" parent="1" source="UtmvscHst4TpLWe68OMd-1" target="UtmvscHst4TpLWe68OMd-6">
          <mxGeometry width="50" height="50" relative="1" as="geometry">
            <mxPoint x="420" y="220" as="sourcePoint" />
            <mxPoint x="470" y="170" as="targetPoint" />
          </mxGeometry>
        </mxCell>
        <mxCell id="UtmvscHst4TpLWe68OMd-28" value="" style="endArrow=classic;startArrow=classic;html=1;rounded=0;entryX=0;entryY=0.25;entryDx=0;entryDy=0;exitX=0.835;exitY=0.942;exitDx=0;exitDy=0;exitPerimeter=0;" edge="1" parent="1" source="UtmvscHst4TpLWe68OMd-6" target="UtmvscHst4TpLWe68OMd-22">
          <mxGeometry width="50" height="50" relative="1" as="geometry">
            <mxPoint x="420" y="220" as="sourcePoint" />
            <mxPoint x="470" y="170" as="targetPoint" />
          </mxGeometry>
        </mxCell>
        <mxCell id="UtmvscHst4TpLWe68OMd-29" value="" style="endArrow=classic;startArrow=classic;html=1;rounded=0;exitX=0;exitY=0.5;exitDx=0;exitDy=0;entryX=0.978;entryY=0.675;entryDx=0;entryDy=0;entryPerimeter=0;" edge="1" parent="1" source="UtmvscHst4TpLWe68OMd-26" target="UtmvscHst4TpLWe68OMd-6">
          <mxGeometry width="50" height="50" relative="1" as="geometry">
            <mxPoint x="420" y="220" as="sourcePoint" />
            <mxPoint x="470" y="170" as="targetPoint" />
          </mxGeometry>
        </mxCell>
      </root>
    </mxGraphModel>
  </diagram>
  <diagram id="ROg3bbjQrWc9JxjHeWYL" name="第 2 页">
    <mxGraphModel dx="1002" dy="561" grid="1" gridSize="10" guides="1" tooltips="1" connect="1" arrows="1" fold="1" page="1" pageScale="1" pageWidth="827" pageHeight="1169" math="0" shadow="0">
      <root>
        <mxCell id="0" />
        <mxCell id="1" parent="0" />
        <mxCell id="dSHtwoK2_Ssb6zUePjWv-1" value="捐助者信息" style="shape=partialRectangle;whiteSpace=wrap;html=1;left=0;right=0;fillColor=none;fontSize=12;" vertex="1" parent="1">
          <mxGeometry x="360" y="430" width="70" height="30" as="geometry" />
        </mxCell>
        <mxCell id="dSHtwoK2_Ssb6zUePjWv-2" value="D1" style="whiteSpace=wrap;html=1;aspect=fixed;fontSize=12;" vertex="1" parent="1">
          <mxGeometry x="330" y="430" width="30" height="30" as="geometry" />
        </mxCell>
        <mxCell id="dSHtwoK2_Ssb6zUePjWv-3" value="&lt;font style=&quot;font-size: 12px;&quot;&gt;捐助者&lt;/font&gt;" style="rounded=0;whiteSpace=wrap;html=1;fontSize=12;" vertex="1" parent="1">
          <mxGeometry x="40" y="440" width="80" height="40" as="geometry" />
        </mxCell>
        <mxCell id="dSHtwoK2_Ssb6zUePjWv-4" value="教育单位" style="rounded=0;whiteSpace=wrap;html=1;fontSize=12;" vertex="1" parent="1">
          <mxGeometry x="40" y="668.74" width="80" height="40" as="geometry" />
        </mxCell>
        <mxCell id="dSHtwoK2_Ssb6zUePjWv-5" value="理事会" style="rounded=0;whiteSpace=wrap;html=1;fontSize=12;" vertex="1" parent="1">
          <mxGeometry x="574.5300000000001" y="610" width="70" height="40" as="geometry" />
        </mxCell>
        <mxCell id="dSHtwoK2_Ssb6zUePjWv-6" value="" style="endArrow=classic;html=1;rounded=0;fontSize=12;exitX=1;exitY=0.75;exitDx=0;exitDy=0;entryX=0.024;entryY=0.932;entryDx=0;entryDy=0;entryPerimeter=0;" edge="1" parent="1" source="dSHtwoK2_Ssb6zUePjWv-4" target="dSHtwoK2_Ssb6zUePjWv-23">
          <mxGeometry width="50" height="50" relative="1" as="geometry">
            <mxPoint x="120" y="718.74" as="sourcePoint" />
            <mxPoint x="250" y="630" as="targetPoint" />
          </mxGeometry>
        </mxCell>
        <mxCell id="dSHtwoK2_Ssb6zUePjWv-7" value="F4 用款申请" style="edgeLabel;html=1;align=center;verticalAlign=middle;resizable=0;points=[];" vertex="1" connectable="0" parent="dSHtwoK2_Ssb6zUePjWv-6">
          <mxGeometry x="0.0473" relative="1" as="geometry">
            <mxPoint x="13" y="2" as="offset" />
          </mxGeometry>
        </mxCell>
        <mxCell id="dSHtwoK2_Ssb6zUePjWv-8" value="" style="endArrow=classic;html=1;rounded=0;exitX=1.002;exitY=0.361;exitDx=0;exitDy=0;entryX=0;entryY=0.25;entryDx=0;entryDy=0;fontSize=12;exitPerimeter=0;" edge="1" parent="1" source="dSHtwoK2_Ssb6zUePjWv-3" target="dSHtwoK2_Ssb6zUePjWv-24">
          <mxGeometry width="50" height="50" relative="1" as="geometry">
            <mxPoint x="100" y="480" as="sourcePoint" />
            <mxPoint x="238.56999999999994" y="503.3600000000001" as="targetPoint" />
          </mxGeometry>
        </mxCell>
        <mxCell id="dSHtwoK2_Ssb6zUePjWv-9" value="F1 捐助请求" style="edgeLabel;html=1;align=center;verticalAlign=middle;resizable=0;points=[];fontSize=11;" vertex="1" connectable="0" parent="dSHtwoK2_Ssb6zUePjWv-8">
          <mxGeometry x="-0.0803" y="1" relative="1" as="geometry">
            <mxPoint x="9" as="offset" />
          </mxGeometry>
        </mxCell>
        <mxCell id="dSHtwoK2_Ssb6zUePjWv-10" value="" style="endArrow=classic;html=1;rounded=0;exitX=0;exitY=0.5;exitDx=0;exitDy=0;entryX=1;entryY=0.75;entryDx=0;entryDy=0;fontSize=12;" edge="1" parent="1" source="dSHtwoK2_Ssb6zUePjWv-24" target="dSHtwoK2_Ssb6zUePjWv-3">
          <mxGeometry width="50" height="50" relative="1" as="geometry">
            <mxPoint x="224.25126265847325" y="510.25126265847337" as="sourcePoint" />
            <mxPoint x="140" y="610" as="targetPoint" />
          </mxGeometry>
        </mxCell>
        <mxCell id="dSHtwoK2_Ssb6zUePjWv-11" value="F2 捐助证书" style="edgeLabel;html=1;align=center;verticalAlign=middle;resizable=0;points=[];fontSize=11;" vertex="1" connectable="0" parent="dSHtwoK2_Ssb6zUePjWv-10">
          <mxGeometry x="0.04" y="4" relative="1" as="geometry">
            <mxPoint as="offset" />
          </mxGeometry>
        </mxCell>
        <mxCell id="dSHtwoK2_Ssb6zUePjWv-12" value="" style="endArrow=classic;html=1;rounded=0;exitX=-0.028;exitY=0.231;exitDx=0;exitDy=0;exitPerimeter=0;entryX=1;entryY=0.25;entryDx=0;entryDy=0;fontSize=12;" edge="1" parent="1" source="dSHtwoK2_Ssb6zUePjWv-23" target="dSHtwoK2_Ssb6zUePjWv-4">
          <mxGeometry width="50" height="50" relative="1" as="geometry">
            <mxPoint x="243.51" y="600.74" as="sourcePoint" />
            <mxPoint x="170" y="668.74" as="targetPoint" />
          </mxGeometry>
        </mxCell>
        <mxCell id="dSHtwoK2_Ssb6zUePjWv-13" value="F3 资金支出" style="edgeLabel;html=1;align=center;verticalAlign=middle;resizable=0;points=[];" vertex="1" connectable="0" parent="dSHtwoK2_Ssb6zUePjWv-12">
          <mxGeometry x="0.1134" y="-2" relative="1" as="geometry">
            <mxPoint x="-12" y="-5" as="offset" />
          </mxGeometry>
        </mxCell>
        <mxCell id="dSHtwoK2_Ssb6zUePjWv-14" value="" style="endArrow=classic;html=1;rounded=0;exitX=0.338;exitY=1.122;exitDx=0;exitDy=0;entryX=0.25;entryY=0;entryDx=0;entryDy=0;fontSize=12;exitPerimeter=0;" edge="1" parent="1" source="dSHtwoK2_Ssb6zUePjWv-27" target="dSHtwoK2_Ssb6zUePjWv-5">
          <mxGeometry width="50" height="50" relative="1" as="geometry">
            <mxPoint x="485.47999999999985" y="683.61" as="sourcePoint" />
            <mxPoint x="705.34" y="690.74" as="targetPoint" />
          </mxGeometry>
        </mxCell>
        <mxCell id="dSHtwoK2_Ssb6zUePjWv-15" value="F5 财政报表" style="edgeLabel;html=1;align=center;verticalAlign=middle;resizable=0;points=[];" vertex="1" connectable="0" parent="dSHtwoK2_Ssb6zUePjWv-14">
          <mxGeometry x="-0.2915" y="2" relative="1" as="geometry">
            <mxPoint as="offset" />
          </mxGeometry>
        </mxCell>
        <mxCell id="dSHtwoK2_Ssb6zUePjWv-16" value="教育单位信息" style="shape=partialRectangle;whiteSpace=wrap;html=1;left=0;right=0;fillColor=none;fontSize=12;" vertex="1" parent="1">
          <mxGeometry x="381.55" y="674.06" width="86" height="30" as="geometry" />
        </mxCell>
        <mxCell id="dSHtwoK2_Ssb6zUePjWv-17" value="D2" style="whiteSpace=wrap;html=1;aspect=fixed;fontSize=12;" vertex="1" parent="1">
          <mxGeometry x="351.55" y="674.06" width="30" height="30" as="geometry" />
        </mxCell>
        <mxCell id="dSHtwoK2_Ssb6zUePjWv-18" value="收支状况信息" style="shape=partialRectangle;whiteSpace=wrap;html=1;left=0;right=0;fillColor=none;fontSize=12;" vertex="1" parent="1">
          <mxGeometry x="389.99999999999994" y="555" width="90" height="30" as="geometry" />
        </mxCell>
        <mxCell id="dSHtwoK2_Ssb6zUePjWv-19" value="D3" style="whiteSpace=wrap;html=1;aspect=fixed;fontSize=12;" vertex="1" parent="1">
          <mxGeometry x="359.99999999999994" y="555" width="30" height="30" as="geometry" />
        </mxCell>
        <mxCell id="dSHtwoK2_Ssb6zUePjWv-20" value="" style="endArrow=classic;startArrow=classic;html=1;rounded=0;exitX=0.25;exitY=1;exitDx=0;exitDy=0;entryX=0.641;entryY=0.039;entryDx=0;entryDy=0;entryPerimeter=0;" edge="1" parent="1" source="dSHtwoK2_Ssb6zUePjWv-2" target="dSHtwoK2_Ssb6zUePjWv-24">
          <mxGeometry width="50" height="50" relative="1" as="geometry">
            <mxPoint x="420" y="570.74" as="sourcePoint" />
            <mxPoint x="444.11" y="561.72" as="targetPoint" />
          </mxGeometry>
        </mxCell>
        <mxCell id="dSHtwoK2_Ssb6zUePjWv-21" value="" style="endArrow=classic;startArrow=classic;html=1;rounded=0;entryX=0;entryY=0.25;entryDx=0;entryDy=0;exitX=0.974;exitY=0.85;exitDx=0;exitDy=0;exitPerimeter=0;" edge="1" parent="1" source="dSHtwoK2_Ssb6zUePjWv-23" target="dSHtwoK2_Ssb6zUePjWv-17">
          <mxGeometry width="50" height="50" relative="1" as="geometry">
            <mxPoint x="300.00000000000006" y="660" as="sourcePoint" />
            <mxPoint x="307.55" y="624.06" as="targetPoint" />
          </mxGeometry>
        </mxCell>
        <mxCell id="dSHtwoK2_Ssb6zUePjWv-22" value="2" style="swimlane;rounded=1;" vertex="1" parent="1">
          <mxGeometry x="225" y="600.74" width="70" height="60" as="geometry" />
        </mxCell>
        <mxCell id="dSHtwoK2_Ssb6zUePjWv-23" value="支出处理" style="text;html=1;align=center;verticalAlign=middle;resizable=0;points=[];autosize=1;strokeColor=none;fillColor=none;rounded=1;" vertex="1" parent="dSHtwoK2_Ssb6zUePjWv-22">
          <mxGeometry y="25" width="70" height="30" as="geometry" />
        </mxCell>
        <mxCell id="dSHtwoK2_Ssb6zUePjWv-24" value="1" style="swimlane;rounded=1;" vertex="1" parent="1">
          <mxGeometry x="225" y="490.74" width="70" height="60" as="geometry" />
        </mxCell>
        <mxCell id="dSHtwoK2_Ssb6zUePjWv-25" value="收入处理" style="text;html=1;align=center;verticalAlign=middle;resizable=0;points=[];autosize=1;strokeColor=none;fillColor=none;rounded=1;" vertex="1" parent="dSHtwoK2_Ssb6zUePjWv-24">
          <mxGeometry y="25" width="70" height="30" as="geometry" />
        </mxCell>
        <mxCell id="dSHtwoK2_Ssb6zUePjWv-26" value="3" style="swimlane;rounded=1;" vertex="1" parent="1">
          <mxGeometry x="530" y="480" width="70" height="60" as="geometry" />
        </mxCell>
        <mxCell id="dSHtwoK2_Ssb6zUePjWv-27" value="产生报表" style="text;html=1;align=center;verticalAlign=middle;resizable=0;points=[];autosize=1;strokeColor=none;fillColor=none;rounded=1;" vertex="1" parent="dSHtwoK2_Ssb6zUePjWv-26">
          <mxGeometry y="25" width="70" height="30" as="geometry" />
        </mxCell>
        <mxCell id="dSHtwoK2_Ssb6zUePjWv-28" value="" style="endArrow=classic;html=1;rounded=0;entryX=0;entryY=0.5;entryDx=0;entryDy=0;exitX=0.983;exitY=0.709;exitDx=0;exitDy=0;exitPerimeter=0;" edge="1" parent="1" source="dSHtwoK2_Ssb6zUePjWv-25" target="dSHtwoK2_Ssb6zUePjWv-19">
          <mxGeometry width="50" height="50" relative="1" as="geometry">
            <mxPoint x="330" y="580" as="sourcePoint" />
            <mxPoint x="380" y="530" as="targetPoint" />
          </mxGeometry>
        </mxCell>
        <mxCell id="dSHtwoK2_Ssb6zUePjWv-29" value="收入信息" style="edgeLabel;html=1;align=center;verticalAlign=middle;resizable=0;points=[];" vertex="1" connectable="0" parent="dSHtwoK2_Ssb6zUePjWv-28">
          <mxGeometry x="-0.1089" relative="1" as="geometry">
            <mxPoint as="offset" />
          </mxGeometry>
        </mxCell>
        <mxCell id="dSHtwoK2_Ssb6zUePjWv-30" value="" style="endArrow=classic;html=1;rounded=0;entryX=0.25;entryY=1;entryDx=0;entryDy=0;exitX=1.023;exitY=0.242;exitDx=0;exitDy=0;exitPerimeter=0;" edge="1" parent="1" source="dSHtwoK2_Ssb6zUePjWv-23" target="dSHtwoK2_Ssb6zUePjWv-19">
          <mxGeometry width="50" height="50" relative="1" as="geometry">
            <mxPoint x="330" y="580" as="sourcePoint" />
            <mxPoint x="380" y="530" as="targetPoint" />
          </mxGeometry>
        </mxCell>
        <mxCell id="dSHtwoK2_Ssb6zUePjWv-31" value="支出信息" style="edgeLabel;html=1;align=center;verticalAlign=middle;resizable=0;points=[];" vertex="1" connectable="0" parent="dSHtwoK2_Ssb6zUePjWv-30">
          <mxGeometry x="-0.0674" relative="1" as="geometry">
            <mxPoint as="offset" />
          </mxGeometry>
        </mxCell>
        <mxCell id="dSHtwoK2_Ssb6zUePjWv-32" value="" style="endArrow=classic;html=1;rounded=0;entryX=0;entryY=0.441;entryDx=0;entryDy=0;entryPerimeter=0;exitX=0.75;exitY=0;exitDx=0;exitDy=0;" edge="1" parent="1" source="dSHtwoK2_Ssb6zUePjWv-18" target="dSHtwoK2_Ssb6zUePjWv-27">
          <mxGeometry width="50" height="50" relative="1" as="geometry">
            <mxPoint x="330" y="580" as="sourcePoint" />
            <mxPoint x="380" y="530" as="targetPoint" />
          </mxGeometry>
        </mxCell>
        <mxCell id="dSHtwoK2_Ssb6zUePjWv-33" value="收支信息" style="edgeLabel;html=1;align=center;verticalAlign=middle;resizable=0;points=[];" vertex="1" connectable="0" parent="dSHtwoK2_Ssb6zUePjWv-32">
          <mxGeometry x="-0.0765" y="3" relative="1" as="geometry">
            <mxPoint as="offset" />
          </mxGeometry>
        </mxCell>
      </root>
    </mxGraphModel>
  </diagram>
  <diagram id="GDhej2IImriWC3hmf_9Y" name="第 3 页">
    <mxGraphModel dx="1179" dy="660" grid="1" gridSize="10" guides="1" tooltips="1" connect="1" arrows="1" fold="1" page="1" pageScale="1" pageWidth="827" pageHeight="1169" math="0" shadow="0">
      <root>
        <mxCell id="0" />
        <mxCell id="1" parent="0" />
        <mxCell id="igJmbQWAgveOUVMNSdh9-1" value="捐助者信息" style="shape=partialRectangle;whiteSpace=wrap;html=1;left=0;right=0;fillColor=none;fontSize=12;" vertex="1" parent="1">
          <mxGeometry x="452.15000000000003" y="489" width="70" height="30" as="geometry" />
        </mxCell>
        <mxCell id="igJmbQWAgveOUVMNSdh9-2" value="D1" style="whiteSpace=wrap;html=1;aspect=fixed;fontSize=12;" vertex="1" parent="1">
          <mxGeometry x="422.15000000000003" y="489" width="30" height="30" as="geometry" />
        </mxCell>
        <mxCell id="igJmbQWAgveOUVMNSdh9-3" value="&lt;font style=&quot;font-size: 12px;&quot;&gt;捐助者&lt;/font&gt;" style="rounded=0;whiteSpace=wrap;html=1;fontSize=12;" vertex="1" parent="1">
          <mxGeometry x="117.31" y="593.6" width="68.32" height="40" as="geometry" />
        </mxCell>
        <mxCell id="igJmbQWAgveOUVMNSdh9-4" value="教育单位" style="rounded=0;whiteSpace=wrap;html=1;fontSize=12;" vertex="1" parent="1">
          <mxGeometry x="100" y="966.0699999999999" width="80" height="40" as="geometry" />
        </mxCell>
        <mxCell id="igJmbQWAgveOUVMNSdh9-5" value="理事会" style="rounded=0;whiteSpace=wrap;html=1;fontSize=12;" vertex="1" parent="1">
          <mxGeometry x="662.21" y="850" width="70" height="40" as="geometry" />
        </mxCell>
        <mxCell id="igJmbQWAgveOUVMNSdh9-6" value="" style="endArrow=classic;html=1;rounded=0;fontSize=12;exitX=1;exitY=0.75;exitDx=0;exitDy=0;entryX=0.019;entryY=0.88;entryDx=0;entryDy=0;entryPerimeter=0;" edge="1" parent="1" source="igJmbQWAgveOUVMNSdh9-4" target="igJmbQWAgveOUVMNSdh9-23">
          <mxGeometry width="50" height="50" relative="1" as="geometry">
            <mxPoint x="180" y="1016.0699999999999" as="sourcePoint" />
            <mxPoint x="286.67999999999995" y="951.03" as="targetPoint" />
          </mxGeometry>
        </mxCell>
        <mxCell id="igJmbQWAgveOUVMNSdh9-7" value="F4 用款申请" style="edgeLabel;html=1;align=center;verticalAlign=middle;resizable=0;points=[];" vertex="1" connectable="0" parent="igJmbQWAgveOUVMNSdh9-6">
          <mxGeometry x="0.0473" relative="1" as="geometry">
            <mxPoint x="-8" y="-6" as="offset" />
          </mxGeometry>
        </mxCell>
        <mxCell id="igJmbQWAgveOUVMNSdh9-8" value="" style="endArrow=classic;html=1;rounded=0;exitX=1.002;exitY=0.361;exitDx=0;exitDy=0;entryX=-0.018;entryY=0.841;entryDx=0;entryDy=0;fontSize=12;exitPerimeter=0;entryPerimeter=0;" edge="1" parent="1" source="igJmbQWAgveOUVMNSdh9-3" target="igJmbQWAgveOUVMNSdh9-25">
          <mxGeometry width="50" height="50" relative="1" as="geometry">
            <mxPoint x="190.65" y="675" as="sourcePoint" />
            <mxPoint x="329.21999999999997" y="698.3600000000001" as="targetPoint" />
          </mxGeometry>
        </mxCell>
        <mxCell id="igJmbQWAgveOUVMNSdh9-9" value="F1 捐助请求" style="edgeLabel;html=1;align=center;verticalAlign=middle;resizable=0;points=[];fontSize=11;" vertex="1" connectable="0" parent="igJmbQWAgveOUVMNSdh9-8">
          <mxGeometry x="-0.0803" y="1" relative="1" as="geometry">
            <mxPoint x="9" as="offset" />
          </mxGeometry>
        </mxCell>
        <mxCell id="igJmbQWAgveOUVMNSdh9-10" value="" style="endArrow=classic;html=1;rounded=0;exitX=0.381;exitY=-0.001;exitDx=0;exitDy=0;entryX=1;entryY=0.75;entryDx=0;entryDy=0;fontSize=12;exitPerimeter=0;" edge="1" parent="1" source="igJmbQWAgveOUVMNSdh9-36" target="igJmbQWAgveOUVMNSdh9-3">
          <mxGeometry width="50" height="50" relative="1" as="geometry">
            <mxPoint x="277.9012626584733" y="679.2512626584734" as="sourcePoint" />
            <mxPoint x="193.65" y="779" as="targetPoint" />
          </mxGeometry>
        </mxCell>
        <mxCell id="igJmbQWAgveOUVMNSdh9-11" value="F2 捐助证书" style="edgeLabel;html=1;align=center;verticalAlign=middle;resizable=0;points=[];fontSize=11;" vertex="1" connectable="0" parent="igJmbQWAgveOUVMNSdh9-10">
          <mxGeometry x="0.04" y="4" relative="1" as="geometry">
            <mxPoint as="offset" />
          </mxGeometry>
        </mxCell>
        <mxCell id="igJmbQWAgveOUVMNSdh9-12" value="" style="endArrow=classic;html=1;rounded=0;exitX=-0.02;exitY=0.547;exitDx=0;exitDy=0;exitPerimeter=0;entryX=1;entryY=0.25;entryDx=0;entryDy=0;fontSize=12;" edge="1" parent="1" source="igJmbQWAgveOUVMNSdh9-43" target="igJmbQWAgveOUVMNSdh9-4">
          <mxGeometry width="50" height="50" relative="1" as="geometry">
            <mxPoint x="283.03999999999996" y="930" as="sourcePoint" />
            <mxPoint x="230" y="966.0699999999999" as="targetPoint" />
          </mxGeometry>
        </mxCell>
        <mxCell id="igJmbQWAgveOUVMNSdh9-13" value="F3 资金支出信息" style="edgeLabel;html=1;align=center;verticalAlign=middle;resizable=0;points=[];" vertex="1" connectable="0" parent="igJmbQWAgveOUVMNSdh9-12">
          <mxGeometry x="0.1134" y="-2" relative="1" as="geometry">
            <mxPoint x="-12" y="-5" as="offset" />
          </mxGeometry>
        </mxCell>
        <mxCell id="igJmbQWAgveOUVMNSdh9-14" value="" style="endArrow=classic;html=1;rounded=0;exitX=0.338;exitY=1.122;exitDx=0;exitDy=0;entryX=0.25;entryY=0;entryDx=0;entryDy=0;fontSize=12;exitPerimeter=0;" edge="1" parent="1" source="igJmbQWAgveOUVMNSdh9-27" target="igJmbQWAgveOUVMNSdh9-5">
          <mxGeometry width="50" height="50" relative="1" as="geometry">
            <mxPoint x="573.1599999999999" y="923.6100000000001" as="sourcePoint" />
            <mxPoint x="793.02" y="930.74" as="targetPoint" />
          </mxGeometry>
        </mxCell>
        <mxCell id="igJmbQWAgveOUVMNSdh9-15" value="F5 财政报表" style="edgeLabel;html=1;align=center;verticalAlign=middle;resizable=0;points=[];" vertex="1" connectable="0" parent="igJmbQWAgveOUVMNSdh9-14">
          <mxGeometry x="-0.2915" y="2" relative="1" as="geometry">
            <mxPoint as="offset" />
          </mxGeometry>
        </mxCell>
        <mxCell id="igJmbQWAgveOUVMNSdh9-16" value="教育单位信息" style="shape=partialRectangle;whiteSpace=wrap;html=1;left=0;right=0;fillColor=none;fontSize=12;" vertex="1" parent="1">
          <mxGeometry x="452" y="1060" width="86" height="30" as="geometry" />
        </mxCell>
        <mxCell id="igJmbQWAgveOUVMNSdh9-17" value="D2" style="whiteSpace=wrap;html=1;aspect=fixed;fontSize=12;" vertex="1" parent="1">
          <mxGeometry x="422" y="1060" width="30" height="30" as="geometry" />
        </mxCell>
        <mxCell id="igJmbQWAgveOUVMNSdh9-18" value="收支状况信息" style="shape=partialRectangle;whiteSpace=wrap;html=1;left=0;right=0;fillColor=none;fontSize=12;" vertex="1" parent="1">
          <mxGeometry x="451.67999999999995" y="795" width="90" height="30" as="geometry" />
        </mxCell>
        <mxCell id="igJmbQWAgveOUVMNSdh9-19" value="D3" style="whiteSpace=wrap;html=1;aspect=fixed;fontSize=12;" vertex="1" parent="1">
          <mxGeometry x="421.67999999999995" y="795" width="30" height="30" as="geometry" />
        </mxCell>
        <mxCell id="igJmbQWAgveOUVMNSdh9-20" value="" style="endArrow=classic;startArrow=classic;html=1;rounded=0;exitX=0.5;exitY=1;exitDx=0;exitDy=0;entryX=0.929;entryY=-0.01;entryDx=0;entryDy=0;entryPerimeter=0;" edge="1" parent="1" source="igJmbQWAgveOUVMNSdh9-1" target="igJmbQWAgveOUVMNSdh9-34">
          <mxGeometry width="50" height="50" relative="1" as="geometry">
            <mxPoint x="473.65000000000003" y="739.74" as="sourcePoint" />
            <mxPoint x="497.76000000000005" y="730.72" as="targetPoint" />
          </mxGeometry>
        </mxCell>
        <mxCell id="igJmbQWAgveOUVMNSdh9-21" value="" style="endArrow=classic;startArrow=classic;html=1;rounded=0;entryX=0.102;entryY=-0.12;entryDx=0;entryDy=0;entryPerimeter=0;" edge="1" parent="1" target="igJmbQWAgveOUVMNSdh9-16">
          <mxGeometry width="50" height="50" relative="1" as="geometry">
            <mxPoint x="460" y="990" as="sourcePoint" />
            <mxPoint x="369.23" y="864.06" as="targetPoint" />
          </mxGeometry>
        </mxCell>
        <mxCell id="igJmbQWAgveOUVMNSdh9-22" value="2-1" style="swimlane;rounded=1;" vertex="1" parent="1">
          <mxGeometry x="266.68" y="1020" width="70" height="60" as="geometry" />
        </mxCell>
        <mxCell id="igJmbQWAgveOUVMNSdh9-23" value="接受请求" style="text;html=1;align=center;verticalAlign=middle;resizable=0;points=[];autosize=1;strokeColor=none;fillColor=none;rounded=1;" vertex="1" parent="igJmbQWAgveOUVMNSdh9-22">
          <mxGeometry y="25" width="70" height="30" as="geometry" />
        </mxCell>
        <mxCell id="igJmbQWAgveOUVMNSdh9-24" value="1-1" style="swimlane;rounded=1;" vertex="1" parent="1">
          <mxGeometry x="258.45000000000005" y="485" width="70" height="60" as="geometry" />
        </mxCell>
        <mxCell id="igJmbQWAgveOUVMNSdh9-25" value="接受请求" style="text;html=1;align=center;verticalAlign=middle;resizable=0;points=[];autosize=1;strokeColor=none;fillColor=none;rounded=1;" vertex="1" parent="igJmbQWAgveOUVMNSdh9-24">
          <mxGeometry y="25" width="70" height="30" as="geometry" />
        </mxCell>
        <mxCell id="igJmbQWAgveOUVMNSdh9-26" value="3" style="swimlane;rounded=1;" vertex="1" parent="1">
          <mxGeometry x="617.68" y="720" width="70" height="60" as="geometry" />
        </mxCell>
        <mxCell id="igJmbQWAgveOUVMNSdh9-27" value="产生报表" style="text;html=1;align=center;verticalAlign=middle;resizable=0;points=[];autosize=1;strokeColor=none;fillColor=none;rounded=1;" vertex="1" parent="igJmbQWAgveOUVMNSdh9-26">
          <mxGeometry y="25" width="70" height="30" as="geometry" />
        </mxCell>
        <mxCell id="igJmbQWAgveOUVMNSdh9-28" value="" style="endArrow=classic;html=1;rounded=0;entryX=0;entryY=0.5;entryDx=0;entryDy=0;exitX=1.001;exitY=0.413;exitDx=0;exitDy=0;exitPerimeter=0;" edge="1" parent="1" source="igJmbQWAgveOUVMNSdh9-37" target="igJmbQWAgveOUVMNSdh9-19">
          <mxGeometry width="50" height="50" relative="1" as="geometry">
            <mxPoint x="391.68" y="820" as="sourcePoint" />
            <mxPoint x="441.68" y="770" as="targetPoint" />
          </mxGeometry>
        </mxCell>
        <mxCell id="igJmbQWAgveOUVMNSdh9-29" value="F1.2 收入信息" style="edgeLabel;html=1;align=center;verticalAlign=middle;resizable=0;points=[];" vertex="1" connectable="0" parent="igJmbQWAgveOUVMNSdh9-28">
          <mxGeometry x="-0.1089" relative="1" as="geometry">
            <mxPoint as="offset" />
          </mxGeometry>
        </mxCell>
        <mxCell id="igJmbQWAgveOUVMNSdh9-30" value="" style="endArrow=classic;html=1;rounded=0;entryX=0.25;entryY=1;entryDx=0;entryDy=0;exitX=1;exitY=0.25;exitDx=0;exitDy=0;" edge="1" parent="1" source="igJmbQWAgveOUVMNSdh9-42" target="igJmbQWAgveOUVMNSdh9-19">
          <mxGeometry width="50" height="50" relative="1" as="geometry">
            <mxPoint x="391.68" y="820" as="sourcePoint" />
            <mxPoint x="441.68" y="770" as="targetPoint" />
          </mxGeometry>
        </mxCell>
        <mxCell id="igJmbQWAgveOUVMNSdh9-31" value="F4.2 支出信息" style="edgeLabel;html=1;align=center;verticalAlign=middle;resizable=0;points=[];" vertex="1" connectable="0" parent="igJmbQWAgveOUVMNSdh9-30">
          <mxGeometry x="-0.0674" relative="1" as="geometry">
            <mxPoint as="offset" />
          </mxGeometry>
        </mxCell>
        <mxCell id="igJmbQWAgveOUVMNSdh9-32" value="" style="endArrow=classic;html=1;rounded=0;entryX=0;entryY=0.441;entryDx=0;entryDy=0;entryPerimeter=0;exitX=0.75;exitY=0;exitDx=0;exitDy=0;" edge="1" parent="1" source="igJmbQWAgveOUVMNSdh9-18" target="igJmbQWAgveOUVMNSdh9-27">
          <mxGeometry width="50" height="50" relative="1" as="geometry">
            <mxPoint x="391.68" y="820" as="sourcePoint" />
            <mxPoint x="441.68" y="770" as="targetPoint" />
          </mxGeometry>
        </mxCell>
        <mxCell id="igJmbQWAgveOUVMNSdh9-33" value="F5.1 收支信息" style="edgeLabel;html=1;align=center;verticalAlign=middle;resizable=0;points=[];" vertex="1" connectable="0" parent="igJmbQWAgveOUVMNSdh9-32">
          <mxGeometry x="-0.0765" y="3" relative="1" as="geometry">
            <mxPoint x="-13" y="-4" as="offset" />
          </mxGeometry>
        </mxCell>
        <mxCell id="igJmbQWAgveOUVMNSdh9-34" value="1-2" style="swimlane;rounded=1;" vertex="1" parent="1">
          <mxGeometry x="421.50000000000006" y="596.84" width="70" height="60" as="geometry" />
        </mxCell>
        <mxCell id="igJmbQWAgveOUVMNSdh9-35" value="确认身份" style="text;html=1;align=center;verticalAlign=middle;resizable=0;points=[];autosize=1;strokeColor=none;fillColor=none;rounded=1;" vertex="1" parent="igJmbQWAgveOUVMNSdh9-34">
          <mxGeometry y="25" width="70" height="30" as="geometry" />
        </mxCell>
        <mxCell id="igJmbQWAgveOUVMNSdh9-36" value="1-3" style="swimlane;rounded=1;" vertex="1" parent="1">
          <mxGeometry x="263.68" y="731.79" width="70" height="60" as="geometry" />
        </mxCell>
        <mxCell id="igJmbQWAgveOUVMNSdh9-37" value="登记收入" style="text;html=1;align=center;verticalAlign=middle;resizable=0;points=[];autosize=1;strokeColor=none;fillColor=none;rounded=1;" vertex="1" parent="igJmbQWAgveOUVMNSdh9-36">
          <mxGeometry y="25" width="70" height="30" as="geometry" />
        </mxCell>
        <mxCell id="igJmbQWAgveOUVMNSdh9-38" value="" style="endArrow=classic;html=1;rounded=0;exitX=0.75;exitY=1;exitDx=0;exitDy=0;entryX=0.172;entryY=0.018;entryDx=0;entryDy=0;entryPerimeter=0;" edge="1" parent="1" source="igJmbQWAgveOUVMNSdh9-24" target="igJmbQWAgveOUVMNSdh9-34">
          <mxGeometry width="50" height="50" relative="1" as="geometry">
            <mxPoint x="243.65" y="719" as="sourcePoint" />
            <mxPoint x="293.65000000000003" y="669" as="targetPoint" />
          </mxGeometry>
        </mxCell>
        <mxCell id="igJmbQWAgveOUVMNSdh9-39" value="F1.1 捐助信息" style="edgeLabel;html=1;align=center;verticalAlign=middle;resizable=0;points=[];" vertex="1" connectable="0" parent="igJmbQWAgveOUVMNSdh9-38">
          <mxGeometry x="-0.0986" y="-1" relative="1" as="geometry">
            <mxPoint as="offset" />
          </mxGeometry>
        </mxCell>
        <mxCell id="igJmbQWAgveOUVMNSdh9-40" value="" style="endArrow=classic;html=1;rounded=0;exitX=0;exitY=0.833;exitDx=0;exitDy=0;exitPerimeter=0;entryX=1;entryY=0.25;entryDx=0;entryDy=0;" edge="1" parent="1" source="igJmbQWAgveOUVMNSdh9-35" target="igJmbQWAgveOUVMNSdh9-36">
          <mxGeometry width="50" height="50" relative="1" as="geometry">
            <mxPoint x="318.94" y="710.78" as="sourcePoint" />
            <mxPoint x="414.00000000000006" y="657.79" as="targetPoint" />
          </mxGeometry>
        </mxCell>
        <mxCell id="igJmbQWAgveOUVMNSdh9-41" value="F1.1 捐助信息" style="edgeLabel;html=1;align=center;verticalAlign=middle;resizable=0;points=[];" vertex="1" connectable="0" parent="igJmbQWAgveOUVMNSdh9-40">
          <mxGeometry x="-0.104" y="1" relative="1" as="geometry">
            <mxPoint as="offset" />
          </mxGeometry>
        </mxCell>
        <mxCell id="igJmbQWAgveOUVMNSdh9-42" value="2-3" style="swimlane;rounded=1;" vertex="1" parent="1">
          <mxGeometry x="266.68" y="850" width="70" height="60" as="geometry" />
        </mxCell>
        <mxCell id="igJmbQWAgveOUVMNSdh9-43" value="登记支出" style="text;html=1;align=center;verticalAlign=middle;resizable=0;points=[];autosize=1;strokeColor=none;fillColor=none;rounded=1;" vertex="1" parent="igJmbQWAgveOUVMNSdh9-42">
          <mxGeometry y="25" width="70" height="30" as="geometry" />
        </mxCell>
        <mxCell id="igJmbQWAgveOUVMNSdh9-44" value="2-2" style="swimlane;rounded=1;" vertex="1" parent="1">
          <mxGeometry x="430.18" y="929.37" width="75" height="60" as="geometry" />
        </mxCell>
        <mxCell id="igJmbQWAgveOUVMNSdh9-45" value="合法性检查" style="text;html=1;align=center;verticalAlign=middle;resizable=0;points=[];autosize=1;strokeColor=none;fillColor=none;rounded=1;" vertex="1" parent="igJmbQWAgveOUVMNSdh9-44">
          <mxGeometry x="-5" y="25" width="80" height="30" as="geometry" />
        </mxCell>
        <mxCell id="igJmbQWAgveOUVMNSdh9-46" value="" style="endArrow=classic;html=1;rounded=0;exitX=1;exitY=0.25;exitDx=0;exitDy=0;entryX=0.082;entryY=1.094;entryDx=0;entryDy=0;entryPerimeter=0;" edge="1" parent="1" source="igJmbQWAgveOUVMNSdh9-22" target="igJmbQWAgveOUVMNSdh9-45">
          <mxGeometry width="50" height="50" relative="1" as="geometry">
            <mxPoint x="401.68" y="850" as="sourcePoint" />
            <mxPoint x="451.68" y="800" as="targetPoint" />
          </mxGeometry>
        </mxCell>
        <mxCell id="igJmbQWAgveOUVMNSdh9-47" value="F4.1 用款信息" style="edgeLabel;html=1;align=center;verticalAlign=middle;resizable=0;points=[];" vertex="1" connectable="0" parent="igJmbQWAgveOUVMNSdh9-46">
          <mxGeometry x="0.1157" y="-1" relative="1" as="geometry">
            <mxPoint as="offset" />
          </mxGeometry>
        </mxCell>
        <mxCell id="igJmbQWAgveOUVMNSdh9-48" value="" style="endArrow=classic;html=1;rounded=0;entryX=1.02;entryY=0.433;entryDx=0;entryDy=0;entryPerimeter=0;exitX=-0.001;exitY=0.401;exitDx=0;exitDy=0;exitPerimeter=0;" edge="1" parent="1" source="igJmbQWAgveOUVMNSdh9-44" target="igJmbQWAgveOUVMNSdh9-43">
          <mxGeometry width="50" height="50" relative="1" as="geometry">
            <mxPoint x="401.68" y="910" as="sourcePoint" />
            <mxPoint x="451.68" y="860" as="targetPoint" />
          </mxGeometry>
        </mxCell>
        <mxCell id="igJmbQWAgveOUVMNSdh9-49" value="F4.1 用款信息" style="edgeLabel;html=1;align=center;verticalAlign=middle;resizable=0;points=[];" vertex="1" connectable="0" parent="igJmbQWAgveOUVMNSdh9-48">
          <mxGeometry x="0.1105" y="-1" relative="1" as="geometry">
            <mxPoint as="offset" />
          </mxGeometry>
        </mxCell>
      </root>
    </mxGraphModel>
  </diagram>
</mxfile>
